<?xml version="1.0" encoding="UTF-8"?>
<svg id="Layer_2" data-name="Layer 2" xmlns="http://www.w3.org/2000/svg" xmlns:xlink="http://www.w3.org/1999/xlink" viewBox="0 0 171.53 171.53">
  <defs>
    <style>
      .cls-1 {
        fill: #0d1b2a;
      }

      .cls-2 {
        fill: url(#radial-gradient-2);
      }

      .cls-3 {
        fill: url(#radial-gradient);
      }
    </style>
    <radialGradient id="radial-gradient" cx="85.76" cy="85.76" fx="85.76" fy="85.76" r="78.6" gradientUnits="userSpaceOnUse">
      <stop offset=".29" stop-color="#fff"/>
      <stop offset=".64" stop-color="#00adee"/>
      <stop offset="1" stop-color="#0d1a29"/>
    </radialGradient>
    <radialGradient id="radial-gradient-2" cx="85.76" cy="85.76" fx="85.76" fy="85.76" r="27.97" gradientUnits="userSpaceOnUse">
      <stop offset=".06" stop-color="#fff"/>
      <stop offset=".13" stop-color="#fafdfe" stop-opacity=".99"/>
      <stop offset=".2" stop-color="#ecf9fd" stop-opacity=".97"/>
      <stop offset=".28" stop-color="#d5f1fc" stop-opacity=".92"/>
      <stop offset=".36" stop-color="#b5e7fa" stop-opacity=".86"/>
      <stop offset=".44" stop-color="#8cdaf7" stop-opacity=".79"/>
      <stop offset=".53" stop-color="#59c9f3" stop-opacity=".7"/>
      <stop offset=".62" stop-color="#1fb6f0" stop-opacity=".59"/>
      <stop offset=".66" stop-color="#00adee" stop-opacity=".53"/>
      <stop offset=".73" stop-color="#0292ca" stop-opacity=".43"/>
      <stop offset=".89" stop-color="#084e6f" stop-opacity=".19"/>
      <stop offset="1" stop-color="#0d1a29" stop-opacity="0"/>
    </radialGradient>
  </defs>
  <g id="Layer_1-2" data-name="Layer 1">
    <g>
      <rect class="cls-1" width="171.53" height="171.53" rx="32.89" ry="32.89"/>
      <path class="cls-3" d="M164.37,85.76c0-5.22-3.51-10.07-9.69-14.27,4.01-6.31,5.3-12.16,3.23-16.95-1.88-4.35-6.39-7.34-13.07-8.86,1.01-6.67-.04-12.05-3.48-15.49-3.69-3.69-9.6-4.64-16.95-3.24-1.63-7.3-4.85-12.35-9.7-14.27-4.4-1.74-9.7-.67-15.51,2.98-4-5.43-8.55-8.5-13.42-8.5-5.22,0-10.08,3.51-14.28,9.7-6.31-4.01-12.16-5.3-16.94-3.23-4.36,1.89-7.36,6.42-8.88,13.14-6.81-1.06-12.12.06-15.48,3.42-3.7,3.7-4.65,9.64-3.23,17.01-7.48,1.64-12.41,4.91-14.28,9.64-1.79,4.51-.63,9.85,2.93,15.55-5.4,3.99-8.44,8.53-8.44,13.38,0,5.22,3.51,10.07,9.69,14.27-4.01,6.31-5.3,12.16-3.23,16.95,1.93,4.46,6.52,7.41,13.06,8.93-1,6.64.06,12,3.49,15.43,2.62,2.62,6.35,3.86,10.93,3.86,1.87,0,3.89-.22,6.02-.63,1.63,7.3,4.85,12.35,9.7,14.27,1.42.56,2.91.83,4.48.83,3.42,0,7.16-1.31,11.08-3.75,3.99,5.4,8.52,8.44,13.38,8.44,5.22,0,10.07-3.51,14.27-9.69,4.3,2.73,8.39,4.21,12.07,4.21,1.72,0,3.36-.32,4.88-.98,4.46-1.93,7.42-6.53,8.93-13.09,1.57.23,3.09.39,4.5.39,4.57,0,8.31-1.25,10.93-3.86,3.7-3.7,4.65-9.64,3.22-17.01,7.48-1.64,12.41-4.91,14.28-9.64,1.74-4.4.67-9.7-2.98-15.51,5.43-4,8.5-8.55,8.5-13.42ZM156.33,55.22c1.84,4.26.61,9.55-3.08,15.33-4-2.49-8.97-4.73-14.73-6.65,3.01-6.01,5.05-11.61,6.02-16.57,6.07,1.39,10.13,4.05,11.79,7.88ZM124.59,142.89c-4.87-.96-10.43-3.02-16.43-6.05,1.28-4.08,2.42-8.52,3.37-13.27,4.68.83,9.18,1.4,13.47,1.7.62,6.74.49,12.72-.41,17.62ZM47.79,126.61c3.93-.41,8.1-1.08,12.44-1.98.9,4.35,1.95,8.43,3.14,12.2-5.38,2.72-10.41,4.65-14.9,5.71-.81-4.54-1.03-9.92-.68-15.94ZM46.36,43.24c-.33-5.58-.1-10.44.63-14.52,4.06.82,8.66,2.4,13.74,4.76.87.4,1.75.83,2.63,1.27-1.28,4.07-2.4,8.48-3.35,13.22-4.64-.83-9.11-1.39-13.37-1.7-.09-1.01-.21-2.05-.27-3.03ZM123.73,45.02c-3.97.41-8.13,1.06-12.42,1.93-.9-4.37-1.96-8.46-3.15-12.24,5.38-2.72,10.41-4.65,14.9-5.72.81,4.57,1.03,9.97.67,16.02ZM113.29,85.76c0,1.76-.03,3.51-.07,5.24-.6,1.63-1.21,3.26-1.86,4.89-.7,1.78-1.43,3.52-2.17,5.25-1.29,1.36-2.61,2.73-3.96,4.08-1.25,1.25-2.5,2.46-3.75,3.65-1.57.73-3.16,1.45-4.78,2.14-1.76.76-3.51,1.48-5.25,2.18-1.88.05-3.77.08-5.69.08-1.74,0-3.46-.03-5.17-.07-1.65-.61-3.31-1.21-4.96-1.86-1.78-.7-3.53-1.43-5.25-2.17-1.36-1.29-2.73-2.61-4.08-3.96-1.25-1.25-2.46-2.5-3.65-3.75-.73-1.57-1.45-3.16-2.15-4.78-.77-1.77-1.47-3.53-2.18-5.3-.05-1.86-.08-3.74-.08-5.64,0-1.76.03-3.5.07-5.24.6-1.63,1.21-3.26,1.86-4.9.7-1.77,1.43-3.52,2.17-5.26,1.29-1.36,2.61-2.72,3.96-4.08,1.25-1.25,2.51-2.46,3.76-3.66,1.57-.73,3.16-1.44,4.77-2.14,1.77-.77,3.54-1.47,5.3-2.18,1.86-.05,3.74-.08,5.63-.08,1.74,0,3.46.03,5.17.07,1.65.61,3.31,1.21,4.96,1.86,1.77.7,3.52,1.43,5.26,2.17,1.37,1.3,2.73,2.61,4.08,3.96,1.25,1.25,2.46,2.5,3.65,3.76.73,1.57,1.45,3.16,2.14,4.78.76,1.76,1.48,3.5,2.18,5.25.05,1.88.08,3.77.08,5.69ZM112.6,74.15c-.03-.06-.05-.12-.08-.18.16.17.32.35.47.52.01.22.02.44.03.67-.14-.33-.28-.67-.42-1ZM110.32,69.07c-.52-1.12-1.04-2.22-1.57-3.32,1.27.6,2.52,1.21,3.75,1.83.12,1.37.22,2.76.32,4.16-.82-.89-1.66-1.78-2.51-2.68ZM106.6,65.24c-.05-.05-.1-.11-.16-.16-.26-.26-.52-.51-.78-.77.2.09.41.18.61.27.11.22.22.43.33.65ZM102.11,60.88c-.78-.74-1.56-1.46-2.34-2.18,1.21.08,2.41.17,3.6.27.56,1.05,1.13,2.12,1.68,3.2-.97-.43-1.95-.86-2.94-1.29ZM97.54,58.98c-.34-.14-.67-.28-1.01-.41-.07-.03-.13-.05-.2-.07.24.01.48.02.71.03.17.15.33.3.5.45ZM91.26,56.59c-1.13-.42-2.27-.83-3.4-1.22,1.34-.48,2.66-.92,3.99-1.36,1.05.88,2.1,1.78,3.14,2.7-1.24-.05-2.48-.09-3.74-.12ZM85.88,56.52s-.08,0-.12,0c-.34,0-.67,0-1.01,0,.18-.07.37-.14.55-.2.19.07.39.13.58.2ZM79.73,56.61c-1.07.03-2.13.06-3.18.11.9-.78,1.79-1.57,2.69-2.33,1.15.35,2.29.69,3.45,1.06-.98.38-1.97.76-2.96,1.16ZM75.15,58.5c-.33.14-.67.28-1,.42-.05.02-.1.05-.16.07.17-.15.34-.31.51-.46.22-.01.44-.02.66-.03ZM69.07,61.21c-1.12.52-2.22,1.04-3.31,1.57.6-1.27,1.21-2.52,1.83-3.76,1.37-.12,2.76-.22,4.16-.32-.89.82-1.79,1.66-2.68,2.51ZM65.23,64.94s-.1.09-.14.14c-.26.26-.51.52-.76.78.09-.2.18-.41.27-.61.21-.1.42-.21.63-.31ZM60.88,69.41c-.74.78-1.47,1.56-2.18,2.34.08-1.21.17-2.4.27-3.59,1.05-.56,2.11-1.12,3.19-1.68-.43.97-.86,1.94-1.28,2.93ZM58.98,73.99c-.14.34-.28.67-.41,1.01-.03.06-.05.13-.07.19.01-.23.02-.47.03-.71.15-.16.3-.33.45-.49ZM56.6,80.2c-.42,1.15-.83,2.3-1.23,3.44-.47-1.33-.91-2.64-1.35-3.96.88-1.05,1.78-2.1,2.7-3.14-.05,1.21-.09,2.44-.12,3.67ZM56.52,85.56c0,.07,0,.13,0,.2,0,.34,0,.68,0,1.01-.07-.2-.15-.4-.22-.6.07-.21.14-.41.21-.62ZM56.61,91.76c.03,1.08.06,2.16.11,3.23-.8-.91-1.58-1.82-2.34-2.73.35-1.15.71-2.3,1.08-3.46.38.98.76,1.97,1.16,2.95ZM58.5,96.35c.15.34.28.69.42,1.03.03.06.05.12.08.18-.16-.17-.32-.34-.47-.52-.01-.23-.02-.46-.03-.69ZM61.2,102.45c.52,1.12,1.04,2.23,1.57,3.32-1.27-.6-2.52-1.21-3.75-1.83-.12-1.37-.22-2.76-.32-4.16.82.89,1.66,1.78,2.5,2.67ZM64.94,106.3s.09.1.14.15c.26.26.53.51.79.77-.21-.09-.42-.19-.63-.28-.1-.21-.21-.42-.31-.64ZM69.4,110.64c.79.75,1.58,1.46,2.37,2.19-1.21-.08-2.42-.17-3.61-.27-.56-1.05-1.12-2.11-1.67-3.18.96.43,1.93.85,2.91,1.27ZM73.99,112.55c.34.14.67.28,1.01.41.06.03.13.05.19.07-.24-.01-.48-.02-.71-.03-.17-.15-.33-.3-.49-.45ZM80.27,114.93c1.14.42,2.28.83,3.41,1.22-1.33.48-2.66.93-3.98,1.37-1.06-.89-2.11-1.79-3.17-2.72,1.23.05,2.48.09,3.73.12ZM85.64,115.01s.08,0,.12,0c.37,0,.72,0,1.09,0-.19.07-.39.15-.58.22-.21-.07-.42-.14-.63-.21ZM91.8,114.92c1.07-.03,2.14-.06,3.19-.11-.9.79-1.8,1.57-2.71,2.33-1.14-.34-2.28-.69-3.43-1.05.98-.38,1.96-.77,2.95-1.16ZM96.37,113.03c.34-.14.67-.28,1.01-.42.06-.03.12-.05.18-.08-.17.16-.35.32-.52.47-.22.01-.45.02-.67.03ZM102.45,110.32c1.12-.52,2.23-1.04,3.32-1.57-.6,1.27-1.21,2.52-1.83,3.76-1.38.12-2.78.23-4.19.32.9-.83,1.8-1.65,2.7-2.51ZM106.3,106.59s.1-.09.15-.14c.26-.26.51-.52.76-.78-.09.2-.18.41-.27.61-.21.1-.43.21-.64.31ZM110.65,102.1c.73-.77,1.46-1.55,2.17-2.33-.08,1.21-.17,2.4-.27,3.59-1.05.56-2.11,1.12-3.18,1.67.43-.97.86-1.95,1.28-2.93ZM112.55,97.53c.13-.34.27-.67.41-1.01.02-.06.05-.12.07-.18-.01.23-.02.47-.03.7-.15.16-.3.33-.45.49ZM114.93,91.33c.42-1.16.84-2.31,1.24-3.45.47,1.32.93,2.64,1.36,3.95-.89,1.06-1.79,2.11-2.72,3.17.05-1.21.09-2.43.12-3.66ZM115.01,85.97c0-.07,0-.14,0-.2,0-.37,0-.73-.01-1.09.08.21.16.42.24.63-.07.22-.15.45-.23.67ZM114.92,79.72c-.03-1.07-.06-2.13-.11-3.19.8.91,1.58,1.82,2.35,2.73-.34,1.14-.7,2.28-1.07,3.43-.38-.99-.77-1.98-1.17-2.97ZM114.68,73.78c-.1-1.78-.22-3.54-.36-5.28,1.72.89,3.42,1.78,5.08,2.7-.51,2-1.06,4.03-1.65,6.08-1-1.17-2.02-2.33-3.06-3.5ZM114.15,66.49c-.2-2.18-.43-4.31-.69-6.4,2.79.39,5.51.83,8.13,1.33-.51,2.63-1.09,5.33-1.77,8.08-1.85-1.02-3.74-2.02-5.67-3ZM112.33,65.58c-1.57-.78-3.16-1.54-4.77-2.29-.7-1.41-1.42-2.79-2.13-4.15,2.12.2,4.21.43,6.26.7.24,1.88.46,3.79.64,5.74ZM104.44,57.32c-1.13-2.09-2.28-4.13-3.45-6.1,3.03-.84,6.02-1.6,8.94-2.23.57,2.91,1.07,5.95,1.5,9.07-2.28-.28-4.62-.53-7-.74ZM102.38,57.15c-1.53-.12-3.08-.22-4.65-.31-1.32-1.18-2.64-2.33-3.97-3.45,1.85-.59,3.69-1.15,5.51-1.67,1.05,1.76,2.09,3.58,3.11,5.43ZM92.19,52.07c-1.67-1.39-3.34-2.72-5.01-4.02,2.25-1.71,4.49-3.32,6.71-4.83,1.5,2.22,2.99,4.54,4.46,6.95-2.04.59-4.09,1.22-6.15,1.9ZM90.27,52.71c-1.68.57-3.36,1.16-5.05,1.78-1.47-.49-2.93-.97-4.39-1.42,1.65-1.37,3.3-2.68,4.95-3.95,1.5,1.16,3,2.36,4.5,3.59ZM78.82,52.48c-2.27-.67-4.52-1.29-6.76-1.87,1.56-2.75,3.15-5.4,4.78-7.93,2.48,1.66,4.98,3.45,7.49,5.34-1.83,1.42-3.67,2.91-5.51,4.45ZM77.25,53.81c-1.16.99-2.31,2-3.47,3.04-1.78.1-3.54.22-5.28.36.88-1.71,1.77-3.4,2.68-5.04,2.01.51,4.02,1.05,6.06,1.65ZM66.49,57.37c-2.18.2-4.31.43-6.4.69.39-2.78.83-5.49,1.32-8.11,2.64.5,5.34,1.11,8.07,1.77-1.01,1.84-2.01,3.72-2.99,5.65ZM65.58,59.2c-.78,1.57-1.54,3.16-2.29,4.77-1.41.7-2.79,1.41-4.15,2.13.2-2.12.43-4.21.7-6.26,1.88-.24,3.79-.46,5.74-.64ZM57.32,67.08c-2.09,1.13-4.13,2.28-6.1,3.45-.84-3.03-1.6-6.02-2.23-8.94,2.91-.57,5.95-1.07,9.07-1.5-.28,2.28-.53,4.62-.74,7ZM57.15,69.15c-.12,1.53-.22,3.07-.31,4.64-1.19,1.32-2.33,2.65-3.46,3.97-.59-1.85-1.14-3.68-1.67-5.5,1.77-1.05,3.58-2.09,5.44-3.11ZM52.09,79.29c-1.41,1.69-2.76,3.37-4.06,5.05-1.7-2.25-3.31-4.48-4.81-6.69,2.23-1.51,4.56-3,6.98-4.48.59,2.02,1.22,4.06,1.89,6.12ZM52.72,81.24c.56,1.65,1.15,3.3,1.76,4.96-.5,1.51-.98,3-1.44,4.49-1.36-1.64-2.67-3.29-3.93-4.92,1.16-1.5,2.37-3.02,3.61-4.53ZM52.45,92.67c-.68,2.29-1.31,4.55-1.89,6.78-2.75-1.56-5.4-3.14-7.9-4.75,1.66-2.47,3.46-4.98,5.37-7.5,1.41,1.82,2.89,3.64,4.42,5.47ZM53.78,94.25c1,1.17,2.02,2.33,3.06,3.5.1,1.79.22,3.54.36,5.28-1.73-.89-3.43-1.79-5.08-2.7.51-2,1.06-4.03,1.66-6.08ZM57.38,105.06c.2,2.17.43,4.29.69,6.38-2.79-.39-5.5-.83-8.13-1.33.5-2.62,1.09-5.31,1.76-8.05,1.85,1.01,3.74,2.01,5.68,2.99ZM59.2,105.96c1.57.77,3.16,1.54,4.78,2.28.7,1.4,1.41,2.78,2.12,4.13-2.13-.2-4.21-.43-6.26-.7-.24-1.87-.45-3.78-.64-5.72ZM67.08,114.2c1.14,2.1,2.29,4.14,3.46,6.13-3.05.85-6.04,1.59-8.94,2.23-.57-2.92-1.07-5.96-1.51-9.09,2.28.28,4.61.53,6.99.74ZM69.14,114.38c1.53.12,3.08.22,4.65.31,1.33,1.19,2.66,2.34,3.99,3.47-1.86.6-3.69,1.16-5.51,1.68-1.06-1.78-2.1-3.6-3.13-5.47ZM79.33,119.47c1.67,1.4,3.34,2.73,5.01,4.03-2.25,1.7-4.49,3.31-6.69,4.82-1.5-2.21-2.98-4.52-4.44-6.93,2.02-.59,4.07-1.24,6.13-1.92ZM81.27,118.83c1.67-.57,3.35-1.17,5.04-1.8,1.47.49,2.94.97,4.41,1.42-1.65,1.37-3.31,2.69-4.95,3.96-1.49-1.15-2.99-2.35-4.49-3.59ZM92.71,119.05c2.27.67,4.52,1.29,6.76,1.87-1.57,2.77-3.16,5.43-4.78,7.95-2.47-1.66-4.98-3.46-7.5-5.37,1.84-1.43,3.68-2.9,5.53-4.45ZM94.26,117.72c1.16-.99,2.32-1.99,3.48-3.03,1.79-.1,3.55-.22,5.29-.36-.88,1.72-1.78,3.4-2.68,5.05-2.01-.51-4.04-1.06-6.08-1.65ZM105.06,114.15c2.17-.2,4.29-.43,6.38-.69-.39,2.78-.83,5.49-1.32,8.11-2.63-.5-5.32-1.1-8.03-1.76,1.01-1.84,2-3.72,2.97-5.66ZM105.97,112.32c.77-1.56,1.53-3.15,2.27-4.77,1.4-.7,2.78-1.41,4.14-2.13-.2,2.12-.43,4.21-.7,6.26-1.87.24-3.78.45-5.71.64ZM114.2,104.44c2.1-1.14,4.14-2.29,6.13-3.46.85,3.05,1.59,6.04,2.23,8.95-2.92.57-5.96,1.07-9.1,1.51.28-2.28.53-4.62.74-7ZM114.38,102.38c.12-1.53.22-3.07.31-4.64,1.19-1.33,2.35-2.66,3.48-3.99.6,1.85,1.16,3.69,1.68,5.5-1.78,1.06-3.6,2.1-5.47,3.13ZM119.48,92.19c1.39-1.67,2.73-3.34,4.02-5,1.7,2.25,3.31,4.48,4.81,6.69-2.21,1.5-4.52,2.98-6.93,4.45-.59-2.02-1.22-4.06-1.9-6.13ZM118.83,90.26c-.56-1.65-1.15-3.31-1.76-4.99.5-1.49.97-2.96,1.42-4.43,1.36,1.64,2.67,3.29,3.93,4.92-1.15,1.49-2.35,2.99-3.59,4.5ZM119.08,78.86c.68-2.29,1.31-4.54,1.88-6.77,2.74,1.55,5.38,3.14,7.89,4.76-1.66,2.46-3.45,4.96-5.35,7.48-1.41-1.82-2.89-3.64-4.42-5.47ZM121.41,70.37c.73-2.94,1.36-5.82,1.9-8.62,4.54.91,8.79,1.99,12.7,3.2-1.78,3.38-3.86,6.88-6.21,10.47-2.67-1.72-5.48-3.41-8.39-5.05ZM123.64,60.02c.85-4.71,1.43-9.19,1.74-13.4.97-.09,1.97-.2,2.92-.26,1.69-.1,3.32-.15,4.87-.15,3.61,0,6.85.27,9.71.79-.97,4.85-3.02,10.39-6.04,16.37-4.06-1.28-8.47-2.4-13.19-3.35ZM121.91,59.69c-2.8-.53-5.69-1-8.67-1.4-.45-3.33-.98-6.54-1.58-9.63,4.13-.84,8.13-1.48,11.95-1.88-.31,4.06-.88,8.39-1.69,12.92ZM109.59,47.31c-3.11.67-6.28,1.47-9.5,2.37-1.56-2.59-3.15-5.06-4.75-7.43,3.85-2.56,7.62-4.82,11.24-6.73,1.13,3.65,2.14,7.59,3.01,11.79ZM94.34,40.78c-2.74-3.94-5.51-7.53-8.28-10.74.64-.76,1.27-1.5,1.91-2.22,3.73-4.2,7.35-7.49,10.76-9.86,2.75,4.12,5.21,9.49,7.31,15.85-3.77,1.97-7.69,4.29-11.7,6.96ZM92.89,41.77c-2.36,1.61-4.75,3.33-7.16,5.17-2.66-2.02-5.31-3.92-7.95-5.68,2.34-3.54,4.73-6.83,7.16-9.84,2.65,3.1,5.31,6.57,7.94,10.35ZM76.35,40.31c-3.69-2.41-7.33-4.56-10.89-6.41,1.89-5.77,4.09-10.72,6.53-14.67,3.8,2.66,7.79,6.33,11.81,10.88-2.53,3.11-5.02,6.53-7.45,10.2ZM75.41,41.75c-1.73,2.69-3.42,5.51-5.07,8.43-2.91-.71-5.79-1.36-8.6-1.9.91-4.54,1.99-8.8,3.2-12.71,3.42,1.79,6.93,3.86,10.48,6.18ZM59.69,49.65c-.52,2.79-1,5.66-1.4,8.64-3.33.45-6.54.98-9.63,1.58-.84-4.1-1.47-8.08-1.87-11.88,4.11.31,8.43.86,12.9,1.66ZM46.98,60.22c-4.38.91-8.49,1.96-12.28,3.16-2.71-5.36-4.63-10.37-5.7-14.84,3.13-.55,6.67-.84,10.64-.84.78,0,1.57.01,2.38.03.99.03,2.03.12,3.04.17.41,3.94,1.06,8.06,1.93,12.32ZM47.32,61.94c.67,3.1,1.49,6.28,2.38,9.49-2.6,1.57-5.09,3.16-7.46,4.77-2.56-3.86-4.81-7.62-6.72-11.25,3.65-1.13,7.6-2.14,11.8-3.01ZM40.78,77.18c-3.96,2.75-7.56,5.53-10.78,8.31-5.17-4.3-9.27-8.59-12.08-12.67,4.12-2.76,9.51-5.24,15.9-7.34,1.97,3.77,4.29,7.69,6.96,11.7ZM41.77,78.64c1.6,2.35,3.31,4.73,5.14,7.13-2.05,2.68-3.95,5.35-5.72,7.97-3.56-2.35-6.85-4.73-9.81-7.11,3.11-2.67,6.58-5.34,10.39-7.98ZM40.23,95.2c-2.44,3.71-4.58,7.34-6.41,10.85-5.73-1.88-10.65-4.08-14.58-6.5,2.64-3.78,6.29-7.75,10.8-11.76,3.07,2.49,6.48,4.97,10.19,7.41ZM41.7,96.15c2.66,1.71,5.47,3.39,8.41,5.04-.73,2.93-1.35,5.79-1.89,8.58-4.54-.91-8.79-1.99-12.7-3.2,1.77-3.37,3.84-6.85,6.18-10.42ZM47.89,111.51c-.86,4.74-1.43,9.26-1.74,13.5-6.69.61-12.63.48-17.5-.42.96-4.86,3.02-10.43,6.05-16.43,4.06,1.28,8.47,2.4,13.19,3.35ZM49.62,111.83c2.8.53,5.68,1,8.67,1.4.45,3.35.99,6.57,1.59,9.68-4.18.86-8.18,1.5-11.96,1.91.31-4.08.88-8.43,1.7-12.99ZM61.95,124.27c3.09-.68,6.27-1.48,9.51-2.4,1.56,2.58,3.14,5.05,4.73,7.41-3.86,2.56-7.62,4.81-11.24,6.72-1.13-3.63-2.13-7.56-3-11.74ZM77.17,130.73c2.75,3.96,5.53,7.58,8.32,10.8-4.3,5.16-8.59,9.26-12.67,12.08-2.76-4.12-5.24-9.51-7.34-15.9,3.77-1.96,7.68-4.3,11.69-6.97ZM78.63,129.76c2.35-1.6,4.73-3.34,7.13-5.17,2.69,2.05,5.35,3.96,7.98,5.73-2.35,3.57-4.74,6.86-7.12,9.82-2.67-3.11-5.34-6.58-7.98-10.39ZM95.2,131.29c3.71,2.44,7.34,4.58,10.84,6.41-1.88,5.74-4.08,10.66-6.5,14.59-3.78-2.64-7.75-6.29-11.75-10.8,2.49-3.07,4.97-6.48,7.42-10.2ZM96.15,129.83c1.72-2.68,3.41-5.51,5.07-8.48,2.9.71,5.76,1.36,8.56,1.89-.92,4.56-1.99,8.83-3.21,12.76-3.37-1.77-6.85-3.84-10.42-6.18ZM111.84,121.88c.52-2.79,1-5.66,1.4-8.64,3.35-.45,6.57-.99,9.68-1.59.86,4.15,1.49,8.13,1.9,11.89-4.14-.3-8.47-.86-12.98-1.66ZM124.63,111.3c4.35-.9,8.43-1.95,12.2-3.14,2.71,5.36,4.63,10.37,5.7,14.85-3.74.65-8.09.93-13.02.8-.95-.03-1.95-.11-2.93-.17-.41-3.9-1.06-8.03-1.95-12.34ZM124.27,109.58c-.68-3.09-1.47-6.26-2.38-9.51,2.58-1.56,5.04-3.14,7.4-4.73,2.56,3.86,4.81,7.62,6.72,11.25-3.63,1.13-7.56,2.13-11.74,3ZM130.75,94.34c3.94-2.74,7.53-5.51,10.74-8.28.76.63,1.5,1.27,2.21,1.91,4.2,3.73,7.5,7.35,9.86,10.76-4.11,2.75-9.49,5.21-15.85,7.31-1.97-3.77-4.29-7.69-6.96-11.7ZM129.76,92.89c-1.6-2.35-3.31-4.73-5.14-7.13,2.04-2.68,3.94-5.33,5.71-7.95,3.52,2.33,6.79,4.71,9.78,7.13-3.1,2.66-6.56,5.32-10.35,7.95ZM131.27,76.39c2.45-3.73,4.61-7.38,6.44-10.9,5.73,1.88,10.65,4.08,14.58,6.5-2.66,3.8-6.32,7.79-10.87,11.82-3.1-2.52-6.5-5-10.15-7.42ZM130.42,28.01c4.09,0,7.41,1.09,9.71,3.38,3.04,3.04,3.96,7.88,3.04,13.94-4.24-.78-9.25-1.02-14.98-.69-.89.05-1.79.12-2.7.2.34-6.1.1-11.57-.75-16.23,2.02-.39,3.93-.61,5.68-.61ZM110.23,13.56c1.36,0,2.64.24,3.84.71,4.31,1.71,7.19,6.33,8.67,13.02-4.59,1.07-9.68,3-15.11,5.72-2.13-6.38-4.65-11.78-7.46-15.98,3.65-2.29,7.04-3.47,10.07-3.47ZM85.76,8.88c4.3,0,8.38,2.78,12.01,7.71-3.55,2.45-7.26,5.82-11.08,10.11-.59.67-1.18,1.35-1.77,2.06-4.07-4.55-8.12-8.25-12.01-10.95,3.84-5.69,8.21-8.92,12.85-8.92ZM55.22,15.2c1.32-.57,2.74-.85,4.25-.85,3.34,0,7.1,1.38,11.09,3.93-2.5,4.02-4.75,9.02-6.67,14.82-.82-.41-1.63-.8-2.44-1.18-5.18-2.41-9.91-4.02-14.12-4.86,1.39-6.11,4.05-10.19,7.89-11.86ZM31.4,31.4c2.23-2.23,5.49-3.34,9.62-3.34,1.35,0,2.79.12,4.31.36-.77,4.23-1.01,9.22-.68,14.93.05.92.17,1.89.25,2.84-.95-.05-1.92-.14-2.84-.16-5.06-.14-9.55.15-13.43.85-1.32-6.76-.52-12.17,2.77-15.46ZM14.27,57.46c1.66-4.19,6.16-7.11,13.03-8.61,1.07,4.57,3,9.65,5.7,15.06-6.4,2.13-11.82,4.66-16.03,7.49-3.22-5.17-4.29-9.96-2.71-13.94ZM8.88,85.76c0-4.29,2.75-8.35,7.65-11.97,2.87,4.18,6.97,8.52,12.14,12.87-4.52,4.05-8.2,8.08-10.88,11.95-5.68-3.84-8.92-8.21-8.92-12.85ZM15.2,116.3c-1.84-4.26-.61-9.55,3.08-15.33,4,2.49,8.97,4.73,14.73,6.64-3.02,6.04-5.06,11.66-6.03,16.63-5.94-1.38-10.07-4.01-11.78-7.94ZM31.4,140.13c-3.03-3.03-3.96-7.85-3.05-13.87,3.04.57,6.45.86,10.19.86,2.37,0,4.89-.13,7.5-.36-.34,6.06-.09,11.51.76,16.15-6.73,1.3-12.11.5-15.39-2.78ZM57.46,157.26c-4.32-1.71-7.2-6.34-8.67-13.05,4.59-1.07,9.68-2.99,15.12-5.71,2.13,6.41,4.66,11.83,7.5,16.04-5.17,3.22-9.96,4.29-13.94,2.72ZM85.76,162.65c-4.28,0-8.34-2.75-11.96-7.64,4.18-2.87,8.52-6.99,12.86-12.16,4.05,4.53,8.08,8.2,11.95,10.88-3.84,5.69-8.21,8.92-12.86,8.92ZM116.31,156.33c-4.26,1.84-9.56.61-15.34-3.08,2.49-4,4.73-8.98,6.65-14.75,6.03,3.01,11.66,5.09,16.63,6.06-1.38,5.93-4.01,10.07-7.94,11.77ZM140.13,140.13c-3.03,3.03-7.85,3.96-13.87,3.05.93-5.01,1.1-11.04.5-17.82.9.05,1.83.13,2.71.15.81.02,1.6.03,2.38.03,4.1,0,7.78-.31,11.05-.89,1.33,6.77.53,12.18-2.76,15.47ZM157.26,114.06c-1.66,4.2-6.16,7.12-13.03,8.61-1.07-4.57-3-9.65-5.71-15.06,6.38-2.13,11.78-4.64,15.98-7.46,3.31,5.28,4.3,10.03,2.76,13.91ZM154.94,97.77c-2.45-3.55-5.82-7.27-10.11-11.08-.66-.59-1.35-1.18-2.05-1.77,4.55-4.07,8.25-8.12,10.95-12.01,5.68,3.84,8.92,8.21,8.92,12.85,0,4.3-2.77,8.38-7.71,12.01Z"/>
      <circle class="cls-2" cx="85.76" cy="85.76" r="27.97"/>
    </g>
  </g>
</svg>