<svg viewBox="34.56552 36.54008982035928 324.05175 58.149820359281435" version="1.1" xmlns:xlink="http://www.w3.org/1999/xlink" xmlns="http://www.w3.org/2000/svg" id="Layer_1" style="max-height: 500px" width="324.05175" height="58.149820359281435">
  
  <defs>
    <style>
      .st0 {
        fill: #0f1b2a;
      }

      .st1 {
        fill: #2bace2;
      }

      .st2 {
        fill: url(#radial-gradient);
      }

      .st3 {
        fill: #0e1b29;
      }

      .st4 {
        fill: url(#radial-gradient1);
      }
    </style>
    <radialGradient gradientUnits="userSpaceOnUse" r="25.34" fy="65.62" fx="64.49" cy="65.62" cx="64.49" id="radial-gradient">
      <stop stop-color="#fff" offset=".29"/>
      <stop stop-color="#29abe2" offset=".64"/>
      <stop stop-color="#0e1b29" offset="1"/>
    </radialGradient>
    <radialGradient gradientUnits="userSpaceOnUse" r="9.02" fy="65.62" fx="64.49" cy="65.62" cx="64.49" id="radial-gradient1">
      <stop stop-color="#fff" offset=".06"/>
      <stop stop-opacity=".99" stop-color="#fafdfe" offset=".13"/>
      <stop stop-opacity=".96" stop-color="#edf8fc" offset=".21"/>
      <stop stop-opacity=".92" stop-color="#d8f0f9" offset=".29"/>
      <stop stop-opacity=".85" stop-color="#bbe4f5" offset=".38"/>
      <stop stop-opacity=".77" stop-color="#95d5f0" offset=".46"/>
      <stop stop-opacity=".67" stop-color="#67c3ea" offset=".55"/>
      <stop stop-opacity=".55" stop-color="#31aee3" offset=".65"/>
      <stop stop-opacity=".53" stop-color="#29abe2" offset=".66"/>
      <stop stop-opacity=".43" stop-color="#238fbe" offset=".74"/>
      <stop stop-opacity=".17" stop-color="#164964" offset=".9"/>
      <stop stop-opacity="0" stop-color="#0e1b29" offset="1"/>
    </radialGradient>
  </defs>
  <g>
    <path d="M120.15,49.83c9.02,0,15.76,5.89,15.76,15.34s-6.74,15.33-15.76,15.33-15.76-5.89-15.76-15.33c0-8.6,6.31-15.34,15.76-15.34ZM120.15,74.14c5.63,0,8.56-3.98,8.56-8.98,0-5.42-3.77-8.98-8.56-8.98s-8.56,3.56-8.56,8.98c0,5.08,3.81,8.98,8.56,8.98Z" class="st3"/>
    <path d="M141.41,79.99v-29.65c1.65,0,9.24-.08,10.08-.08,8.09,0,10.97,4.02,10.97,9.49s-3.39,7.75-5,8.56l8.64,11.69h-8.22l-7.2-10.38h-2.5v10.38h-6.78ZM148.19,56.69v6.57h2.46c2.58,0,4.62-.93,4.62-3.43,0-1.65-.85-3.22-4.11-3.22-1.02,0-1.57.04-2.97.08Z" class="st3"/>
    <path d="M170.34,50.34h6.78v29.65h-6.78v-29.65Z" class="st3"/>
    <path d="M197.36,63.09h12.67v13.22c-2.63,2.63-7.41,4.19-11.1,4.19-10.17,0-15.89-6.1-15.89-15.33,0-8.51,5.72-15.34,15.04-15.34,4.41,0,7.29,1.19,9.7,3.09l-2.84,5.46c-1.19-1.27-3.77-2.2-6.06-2.2-4.87,0-8.64,2.88-8.64,8.98,0,5.46,3.47,8.98,8.77,8.98,1.78,0,3.98-.85,4.66-1.48v-3.22h-6.31v-6.35Z" class="st3"/>
    <path d="M229.6,49.83c9.02,0,15.76,5.89,15.76,15.34s-6.74,15.33-15.76,15.33-15.76-5.89-15.76-15.33c0-8.6,6.31-15.34,15.76-15.34ZM229.6,74.14c5.63,0,8.56-3.98,8.56-8.98,0-5.42-3.77-8.98-8.56-8.98s-8.56,3.56-8.56,8.98c0,5.08,3.81,8.98,8.56,8.98Z" class="st3"/>
  </g>
  <g>
    <path d="M259.96,50.34h3.6v26.26h14.61v3.39h-18.22v-29.65Z" class="st1"/>
    <path d="M292.2,50.17h3.09l12.75,29.82h-3.85l-3.81-8.98h-13.51l-3.77,8.98h-3.64l12.75-29.82ZM288.3,67.62h10.68l-5.34-12.67-5.34,12.67Z" class="st1"/>
    <path d="M313.12,50.38c1.65-.04,5.38-.17,8.13-.17,7.07,0,9.53,3.22,9.53,7.33,0,3.73-2.24,5.93-5.08,6.86v.09c3.69.59,6.14,2.97,6.14,7.03,0,6.02-4.62,8.6-10.76,8.6-2.63,0-6.23-.08-7.96-.17v-29.57ZM316.72,53.73v9.57h4.74c3.13,0,5.72-1.74,5.72-4.96s-2.08-4.74-6.02-4.74c-1.57,0-3.39.08-4.45.13ZM316.72,66.48v10.08c.97.08,2.88.17,4.58.17,4.36,0,6.95-1.78,6.95-5.42,0-3.13-2.46-4.83-6.74-4.83h-4.79Z" class="st1"/>
    <path d="M337.64,57.67c0-4.28,3.3-7.75,8.94-7.75,3.43,0,6.48,1.23,8.18,3.09l-1.95,2.71c-1.57-1.57-3.43-2.41-6.02-2.41-3.3,0-5.34,1.74-5.34,4.36,0,7.33,14.49,4.58,14.49,14.7,0,4.87-4.28,8.05-9.66,8.05-3.64,0-7.88-1.65-9.36-4.45l2.08-2.46c1.74,2.29,4.83,3.52,7.33,3.52,3.09,0,5.8-1.61,5.8-4.62,0-7.24-14.49-4.91-14.49-14.74Z" class="st1"/>
  </g>
  <g>
    <rect ry="10.6" rx="10.6" height="55.3" width="55.3" y="37.97" x="36.84" class="st0"/>
    <path d="M89.83,65.62c0-1.68-1.13-3.25-3.13-4.6,1.29-2.03,1.71-3.92,1.04-5.46-.61-1.4-2.06-2.37-4.21-2.86.33-2.15-.01-3.88-1.12-4.99-1.19-1.19-3.1-1.5-5.46-1.04-.52-2.35-1.56-3.98-3.13-4.6-1.42-.56-3.13-.22-5,.96-1.29-1.75-2.76-2.74-4.33-2.74-1.68,0-3.25,1.13-4.6,3.13-2.03-1.29-3.92-1.71-5.46-1.04-1.41.61-2.37,2.07-2.86,4.24-2.19-.34-3.91.02-4.99,1.1-1.19,1.19-1.5,3.11-1.04,5.48-2.41.53-4,1.58-4.6,3.11-.58,1.45-.2,3.18.94,5.01-1.74,1.29-2.72,2.75-2.72,4.31,0,1.68,1.13,3.25,3.12,4.6-1.29,2.03-1.71,3.92-1.04,5.46.62,1.44,2.1,2.39,4.21,2.88-.32,2.14.02,3.87,1.13,4.97.84.84,2.05,1.25,3.52,1.25.6,0,1.25-.07,1.94-.2.52,2.35,1.56,3.98,3.13,4.6.46.18.94.27,1.44.27,1.1,0,2.31-.42,3.57-1.21,1.29,1.74,2.75,2.72,4.31,2.72,1.68,0,3.25-1.13,4.6-3.13,1.39.88,2.7,1.36,3.89,1.36.56,0,1.08-.1,1.57-.32,1.44-.62,2.39-2.11,2.88-4.22.5.08.99.13,1.45.13,1.47,0,2.68-.4,3.52-1.25,1.19-1.19,1.5-3.11,1.04-5.48,2.41-.53,4-1.58,4.6-3.11.56-1.42.22-3.13-.96-5,1.75-1.29,2.74-2.76,2.74-4.33ZM87.24,55.77c.59,1.37.2,3.08-.99,4.94-1.29-.8-2.89-1.52-4.75-2.14.97-1.94,1.63-3.74,1.94-5.34,1.96.45,3.27,1.31,3.8,2.54ZM77.01,84.03c-1.57-.31-3.36-.97-5.3-1.95.41-1.32.78-2.75,1.09-4.28,1.51.27,2.96.45,4.34.55.2,2.17.16,4.1-.13,5.68ZM52.25,78.78c1.27-.13,2.61-.35,4.01-.64.29,1.4.63,2.72,1.01,3.93-1.74.88-3.36,1.5-4.8,1.84-.26-1.46-.33-3.2-.22-5.14ZM51.79,51.91c-.11-1.8-.03-3.37.2-4.68,1.31.26,2.79.77,4.43,1.53.28.13.56.27.85.41-.41,1.31-.77,2.74-1.08,4.26-1.5-.27-2.94-.45-4.31-.55-.03-.33-.07-.66-.09-.98ZM76.73,52.48c-1.28.13-2.62.34-4.01.62-.29-1.41-.63-2.73-1.01-3.95,1.74-.88,3.36-1.5,4.8-1.84.26,1.47.33,3.21.22,5.17ZM73.37,65.62c0,.57,0,1.13-.02,1.69-.19.52-.39,1.05-.6,1.58-.23.57-.46,1.14-.7,1.69-.42.44-.84.88-1.28,1.32-.4.4-.81.79-1.21,1.18-.51.23-1.02.47-1.54.69-.57.25-1.13.48-1.69.7-.61.02-1.22.03-1.83.03-.56,0-1.12,0-1.67-.02-.53-.2-1.07-.39-1.6-.6-.57-.23-1.14-.46-1.69-.7-.44-.42-.88-.84-1.31-1.28-.4-.4-.79-.81-1.18-1.21-.23-.51-.47-1.02-.69-1.54-.25-.57-.48-1.14-.7-1.71-.02-.6-.03-1.21-.03-1.82,0-.57,0-1.13.02-1.69.19-.52.39-1.05.6-1.58.23-.57.46-1.14.7-1.69.42-.44.84-.88,1.28-1.31.4-.4.81-.79,1.21-1.18.51-.23,1.02-.47,1.54-.69.57-.25,1.14-.48,1.71-.7.6-.02,1.2-.03,1.82-.03.56,0,1.12,0,1.67.02.53.2,1.07.39,1.6.6.57.23,1.14.46,1.69.7.44.42.88.84,1.31,1.28.4.4.79.81,1.18,1.21.23.51.47,1.02.69,1.54.25.57.48,1.13.7,1.69.02.61.03,1.22.03,1.83ZM73.14,61.87s-.02-.04-.03-.06c.05.06.1.11.15.17,0,.07,0,.14,0,.21-.05-.11-.09-.21-.14-.32ZM72.41,60.24c-.17-.36-.33-.72-.51-1.07.41.19.81.39,1.21.59.04.44.07.89.1,1.34-.26-.29-.53-.58-.81-.86ZM71.21,59s-.03-.03-.05-.05c-.08-.08-.17-.16-.25-.25.07.03.13.06.2.09.04.07.07.14.11.21ZM69.76,57.6c-.25-.24-.5-.47-.75-.7.39.03.78.05,1.16.09.18.34.36.68.54,1.03-.31-.14-.63-.28-.95-.41ZM68.29,56.98c-.11-.04-.22-.09-.33-.13-.02,0-.04-.02-.06-.02.08,0,.15,0,.23.01.05.05.11.1.16.15ZM66.26,56.21c-.37-.13-.73-.27-1.09-.39.43-.15.86-.3,1.29-.44.34.28.68.57,1.01.87-.4-.02-.8-.03-1.2-.04ZM64.53,56.19s-.03,0-.04,0c-.11,0-.22,0-.33,0,.06-.02.12-.04.18-.07.06.02.13.04.19.06ZM62.55,56.22c-.34,0-.69.02-1.02.03.29-.25.58-.51.87-.75.37.11.74.22,1.11.34-.32.12-.64.25-.95.37ZM61.07,56.83c-.11.05-.22.09-.32.14-.02,0-.03.02-.05.02.05-.05.11-.1.16-.15.07,0,.14,0,.21,0ZM59.11,57.7c-.36.17-.72.33-1.07.5.19-.41.39-.81.59-1.21.44-.04.89-.07,1.34-.1-.29.26-.58.53-.86.81ZM57.87,58.91s-.03.03-.05.05c-.08.08-.16.17-.25.25.03-.07.06-.13.09-.2.07-.03.14-.07.2-.1ZM56.47,60.35c-.24.25-.47.5-.7.75.03-.39.05-.77.09-1.16.34-.18.68-.36,1.03-.54-.14.31-.28.63-.41.94ZM55.86,61.82c-.04.11-.09.22-.13.33,0,.02-.02.04-.02.06,0-.08,0-.15.01-.23.05-.05.1-.11.15-.16ZM55.09,63.82c-.14.37-.27.74-.4,1.11-.15-.43-.29-.85-.43-1.28.28-.34.57-.68.87-1.01-.02.39-.03.79-.04,1.18ZM55.06,65.55s0,.04,0,.06c0,.11,0,.22,0,.33-.02-.06-.05-.13-.07-.19.02-.07.05-.13.07-.2ZM55.09,67.55c0,.35.02.7.04,1.04-.26-.29-.51-.59-.76-.88.11-.37.23-.74.35-1.12.12.32.25.63.37.95ZM55.7,69.03c.05.11.09.22.14.33,0,.02.02.04.03.06-.05-.06-.1-.11-.15-.17,0-.07,0-.15-.01-.22ZM56.57,71c.17.36.34.72.51,1.07-.41-.19-.81-.39-1.21-.59-.04-.44-.07-.89-.1-1.34.26.29.53.57.81.86ZM57.78,72.24s.03.03.05.05c.08.08.17.16.26.25-.07-.03-.14-.06-.2-.09-.03-.07-.07-.14-.1-.2ZM59.22,73.64c.25.24.51.47.76.7-.39-.03-.78-.06-1.16-.09-.18-.34-.36-.68-.54-1.03.31.14.62.27.94.41ZM60.7,74.25c.11.04.22.09.33.13.02,0,.04.02.06.02-.08,0-.15,0-.23-.01-.05-.05-.11-.1-.16-.15ZM62.72,75.02c.37.13.73.27,1.1.39-.43.15-.86.3-1.28.44-.34-.29-.68-.58-1.02-.88.4.02.8.03,1.2.04ZM64.45,75.04s.03,0,.04,0c.12,0,.23,0,.35,0-.06.02-.12.05-.19.07-.07-.02-.14-.05-.2-.07ZM66.44,75.02c.35,0,.69-.02,1.03-.03-.29.25-.58.5-.87.75-.37-.11-.74-.22-1.11-.34.32-.12.63-.25.95-.38ZM67.91,74.41c.11-.05.22-.09.32-.14.02,0,.04-.02.06-.03-.06.05-.11.1-.17.15-.07,0-.14,0-.22,0ZM69.87,73.53c.36-.17.72-.34,1.07-.51-.19.41-.39.81-.59,1.21-.45.04-.9.07-1.35.1.29-.27.58-.53.87-.81ZM71.11,72.33s.03-.03.05-.05c.08-.08.16-.17.25-.25-.03.07-.06.13-.09.2-.07.03-.14.07-.21.1ZM72.52,70.88c.24-.25.47-.5.7-.75-.03.39-.05.77-.09,1.16-.34.18-.68.36-1.03.54.14-.31.28-.63.41-.95ZM73.13,69.41c.04-.11.09-.22.13-.32,0-.02.02-.04.02-.06,0,.08,0,.15-.01.23-.05.05-.1.11-.14.16ZM73.89,67.41c.14-.37.27-.74.4-1.11.15.43.3.85.44,1.27-.29.34-.58.68-.88,1.02.02-.39.03-.78.04-1.18ZM73.92,65.68s0-.04,0-.07c0-.12,0-.23,0-.35.03.07.05.13.08.2-.02.07-.05.14-.07.22ZM73.89,63.67c0-.34-.02-.69-.03-1.03.26.29.51.59.76.88-.11.37-.23.74-.34,1.11-.12-.32-.25-.64-.38-.96ZM73.81,61.75c-.03-.57-.07-1.14-.12-1.7.56.29,1.1.58,1.64.87-.16.65-.34,1.3-.53,1.96-.32-.38-.65-.75-.99-1.13ZM73.64,59.4c-.06-.7-.14-1.39-.22-2.06.9.12,1.77.27,2.62.43-.16.85-.35,1.72-.57,2.6-.6-.33-1.21-.65-1.83-.97ZM73.05,59.11c-.51-.25-1.02-.5-1.54-.74-.23-.45-.46-.9-.69-1.34.68.06,1.36.14,2.02.23.08.61.15,1.22.21,1.85ZM70.51,56.45c-.36-.67-.74-1.33-1.11-1.97.98-.27,1.94-.51,2.88-.72.18.94.34,1.92.48,2.92-.74-.09-1.49-.17-2.26-.24ZM69.85,56.39c-.49-.04-.99-.07-1.5-.1-.43-.38-.85-.75-1.28-1.11.6-.19,1.19-.37,1.78-.54.34.57.67,1.15,1,1.75ZM66.56,54.75c-.54-.45-1.08-.88-1.62-1.3.73-.55,1.45-1.07,2.16-1.56.48.71.96,1.46,1.44,2.24-.66.19-1.32.39-1.98.61ZM65.95,54.96c-.54.18-1.08.37-1.63.57-.47-.16-.95-.31-1.42-.46.53-.44,1.06-.86,1.59-1.27.48.37.97.76,1.45,1.16ZM62.25,54.89c-.73-.22-1.46-.42-2.18-.6.5-.89,1.02-1.74,1.54-2.56.8.54,1.61,1.11,2.41,1.72-.59.46-1.18.94-1.78,1.44ZM61.75,55.31c-.37.32-.75.64-1.12.98-.57.03-1.14.07-1.7.12.28-.55.57-1.1.86-1.63.65.16,1.3.34,1.95.53ZM58.28,56.46c-.7.06-1.39.14-2.06.22.12-.9.27-1.77.43-2.61.85.16,1.72.36,2.6.57-.33.59-.65,1.2-.96,1.82ZM57.99,57.05c-.25.51-.5,1.02-.74,1.54-.45.23-.9.46-1.34.69.06-.68.14-1.36.23-2.02.61-.08,1.22-.15,1.85-.21ZM55.32,59.6c-.67.36-1.33.74-1.97,1.11-.27-.98-.51-1.94-.72-2.88.94-.18,1.92-.34,2.92-.48-.09.74-.17,1.49-.24,2.26ZM55.27,60.26c-.04.49-.07.99-.1,1.5-.38.43-.75.85-1.12,1.28-.19-.6-.37-1.19-.54-1.77.57-.34,1.15-.67,1.75-1ZM53.63,63.53c-.45.54-.89,1.09-1.31,1.63-.55-.72-1.07-1.44-1.55-2.16.72-.49,1.47-.97,2.25-1.44.19.65.39,1.31.61,1.97ZM53.84,64.16c.18.53.37,1.06.57,1.6-.16.49-.32.97-.46,1.45-.44-.53-.86-1.06-1.27-1.59.37-.49.76-.97,1.17-1.46ZM53.75,67.84c-.22.74-.42,1.47-.61,2.19-.89-.5-1.74-1.01-2.55-1.53.54-.8,1.11-1.6,1.73-2.42.46.59.93,1.17,1.43,1.76ZM54.18,68.35c.32.38.65.75.99,1.13.03.58.07,1.14.12,1.7-.56-.29-1.1-.58-1.64-.87.16-.65.34-1.3.53-1.96ZM55.34,71.84c.06.7.14,1.38.22,2.06-.9-.12-1.77-.27-2.62-.43.16-.85.35-1.71.57-2.59.6.33,1.2.65,1.83.96ZM55.93,72.13c.51.25,1.02.49,1.54.74.23.45.45.89.68,1.33-.69-.06-1.36-.14-2.02-.23-.08-.6-.15-1.22-.21-1.84ZM58.47,74.78c.37.68.74,1.34,1.12,1.97-.98.27-1.95.51-2.88.72-.18-.94-.35-1.92-.49-2.93.74.09,1.49.17,2.25.24ZM59.13,74.84c.49.04.99.07,1.5.1.43.38.86.76,1.29,1.12-.6.19-1.19.37-1.78.54-.34-.57-.68-1.16-1.01-1.76ZM62.42,76.48c.54.45,1.08.88,1.61,1.3-.73.55-1.45,1.07-2.16,1.55-.48-.71-.96-1.46-1.43-2.23.65-.19,1.31-.4,1.98-.62ZM63.04,76.28c.54-.18,1.08-.38,1.62-.58.47.16.95.31,1.42.46-.53.44-1.07.87-1.6,1.28-.48-.37-.96-.76-1.45-1.16ZM66.73,76.35c.73.22,1.46.42,2.18.6-.51.89-1.02,1.75-1.54,2.56-.8-.54-1.6-1.12-2.42-1.73.59-.46,1.19-.93,1.78-1.44ZM67.23,75.92c.37-.32.75-.64,1.12-.98.58-.03,1.14-.07,1.71-.12-.28.55-.57,1.1-.87,1.63-.65-.16-1.3-.34-1.96-.53ZM70.71,74.77c.7-.06,1.38-.14,2.06-.22-.12.9-.27,1.77-.43,2.61-.85-.16-1.71-.35-2.59-.57.32-.59.64-1.2.96-1.82ZM71,74.18c.25-.5.49-1.02.73-1.54.45-.23.9-.46,1.33-.69-.06.68-.14,1.36-.22,2.02-.6.08-1.22.15-1.84.21ZM73.66,71.64c.68-.37,1.34-.74,1.97-1.12.27.98.51,1.95.72,2.88-.94.18-1.92.35-2.93.49.09-.74.17-1.49.24-2.26ZM73.71,70.97c.04-.49.07-.99.1-1.5.38-.43.76-.86,1.12-1.29.19.6.37,1.19.54,1.77-.57.34-1.16.68-1.76,1.01ZM75.36,67.69c.45-.54.88-1.08,1.3-1.61.55.72,1.07,1.44,1.55,2.16-.71.48-1.46.96-2.23,1.43-.19-.65-.39-1.31-.61-1.98ZM75.15,67.07c-.18-.53-.37-1.07-.57-1.61.16-.48.31-.95.46-1.43.44.53.86,1.06,1.27,1.59-.37.48-.76.97-1.16,1.45ZM75.23,63.39c.22-.74.42-1.46.61-2.18.88.5,1.73,1.01,2.54,1.53-.53.79-1.11,1.6-1.73,2.41-.46-.59-.93-1.17-1.43-1.76ZM75.98,60.66c.24-.95.44-1.87.61-2.78,1.46.29,2.83.64,4.1,1.03-.57,1.09-1.24,2.22-2,3.38-.86-.55-1.77-1.1-2.7-1.63ZM76.7,57.32c.27-1.52.46-2.96.56-4.32.31-.03.64-.07.94-.08.54-.03,1.07-.05,1.57-.05,1.16,0,2.21.09,3.13.25-.31,1.56-.97,3.35-1.95,5.28-1.31-.41-2.73-.77-4.25-1.08ZM76.14,57.21c-.9-.17-1.83-.32-2.8-.45-.14-1.07-.32-2.11-.51-3.1,1.33-.27,2.62-.48,3.85-.61-.1,1.31-.28,2.7-.55,4.16ZM72.17,53.22c-1,.22-2.03.47-3.06.76-.5-.84-1.01-1.63-1.53-2.39,1.24-.83,2.46-1.55,3.62-2.17.36,1.18.69,2.45.97,3.8ZM67.26,51.12c-.88-1.27-1.78-2.43-2.67-3.46.2-.24.41-.48.62-.71,1.2-1.35,2.37-2.42,3.47-3.18.89,1.33,1.68,3.06,2.36,5.11-1.22.63-2.48,1.38-3.77,2.24ZM66.79,51.44c-.76.52-1.53,1.07-2.31,1.67-.86-.65-1.71-1.26-2.56-1.83.75-1.14,1.53-2.2,2.31-3.17.86,1,1.71,2.12,2.56,3.34ZM61.46,50.97c-1.19-.78-2.36-1.47-3.51-2.07.61-1.86,1.32-3.46,2.11-4.73,1.23.86,2.51,2.04,3.81,3.51-.82,1-1.62,2.1-2.4,3.29ZM61.15,51.43c-.56.87-1.1,1.77-1.63,2.72-.94-.23-1.87-.44-2.77-.61.29-1.46.64-2.84,1.03-4.1,1.1.58,2.23,1.24,3.38,1.99ZM56.09,53.98c-.17.9-.32,1.83-.45,2.78-1.07.14-2.11.32-3.11.51-.27-1.32-.47-2.6-.6-3.83,1.33.1,2.72.28,4.16.53ZM51.99,57.38c-1.41.29-2.74.63-3.96,1.02-.87-1.73-1.49-3.34-1.84-4.79,1.01-.18,2.15-.27,3.43-.27.25,0,.51,0,.77.01.32,0,.65.04.98.06.13,1.27.34,2.6.62,3.97ZM52.1,57.94c.22,1,.48,2.02.77,3.06-.84.51-1.64,1.02-2.41,1.54-.83-1.24-1.55-2.46-2.17-3.63,1.18-.36,2.45-.69,3.8-.97ZM49.99,62.85c-1.28.89-2.44,1.78-3.47,2.68-1.67-1.39-2.99-2.77-3.89-4.09,1.33-.89,3.07-1.69,5.13-2.37.63,1.22,1.38,2.48,2.24,3.77ZM50.31,63.32c.52.76,1.07,1.52,1.66,2.3-.66.87-1.27,1.72-1.84,2.57-1.15-.76-2.21-1.52-3.16-2.29,1-.86,2.12-1.72,3.35-2.57ZM49.81,68.66c-.79,1.2-1.48,2.37-2.07,3.5-1.85-.61-3.43-1.31-4.7-2.09.85-1.22,2.03-2.5,3.48-3.79.99.8,2.09,1.6,3.28,2.39ZM50.29,68.97c.86.55,1.76,1.09,2.71,1.63-.23.94-.43,1.87-.61,2.77-1.46-.29-2.83-.64-4.1-1.03.57-1.08,1.24-2.21,1.99-3.36ZM52.28,73.91c-.28,1.53-.46,2.98-.56,4.35-2.16.2-4.07.15-5.64-.14.31-1.57.97-3.36,1.95-5.3,1.31.41,2.73.77,4.25,1.08ZM52.84,74.02c.9.17,1.83.32,2.8.45.15,1.08.32,2.12.51,3.12-1.35.28-2.64.48-3.86.61.1-1.32.28-2.72.55-4.19ZM56.81,78.03c.99-.22,2.02-.48,3.07-.77.5.83,1.01,1.63,1.53,2.39-1.24.83-2.46,1.55-3.62,2.17-.36-1.17-.69-2.44-.97-3.78ZM61.72,80.11c.89,1.28,1.78,2.44,2.68,3.48-1.39,1.66-2.77,2.99-4.09,3.89-.89-1.33-1.69-3.07-2.37-5.13,1.21-.63,2.48-1.39,3.77-2.25ZM62.19,79.8c.76-.52,1.53-1.08,2.3-1.67.87.66,1.72,1.28,2.57,1.85-.76,1.15-1.53,2.21-2.3,3.17-.86-1-1.72-2.12-2.57-3.35ZM67.53,80.29c1.2.79,2.37,1.48,3.49,2.07-.61,1.85-1.31,3.44-2.1,4.7-1.22-.85-2.5-2.03-3.79-3.48.8-.99,1.6-2.09,2.39-3.29ZM67.84,79.82c.55-.86,1.1-1.78,1.64-2.73.93.23,1.86.44,2.76.61-.3,1.47-.64,2.85-1.04,4.11-1.08-.57-2.21-1.24-3.36-1.99ZM72.9,77.26c.17-.9.32-1.83.45-2.78,1.08-.15,2.12-.32,3.12-.51.28,1.34.48,2.62.61,3.83-1.33-.1-2.73-.28-4.18-.54ZM77.02,73.85c1.4-.29,2.72-.63,3.93-1.01.87,1.73,1.49,3.34,1.84,4.79-1.21.21-2.61.3-4.2.26-.31,0-.63-.04-.94-.05-.13-1.26-.34-2.59-.63-3.98ZM76.9,73.29c-.22-1-.47-2.02-.77-3.07.83-.5,1.63-1.01,2.39-1.53.83,1.24,1.55,2.46,2.17,3.63-1.17.36-2.44.69-3.78.97ZM78.99,68.38c1.27-.88,2.43-1.78,3.46-2.67.24.2.48.41.71.62,1.35,1.2,2.42,2.37,3.18,3.47-1.33.89-3.06,1.68-5.11,2.36-.63-1.22-1.38-2.48-2.24-3.77ZM78.67,67.91c-.52-.76-1.07-1.52-1.66-2.3.66-.86,1.27-1.72,1.84-2.56,1.13.75,2.19,1.52,3.15,2.3-1,.86-2.11,1.71-3.34,2.56ZM79.16,62.59c.79-1.2,1.48-2.38,2.08-3.51,1.85.61,3.43,1.31,4.7,2.1-.86,1.23-2.04,2.51-3.5,3.81-1-.81-2.09-1.61-3.27-2.39ZM78.89,47c1.32,0,2.39.35,3.13,1.09.98.98,1.28,2.54.98,4.49-1.37-.25-2.98-.33-4.83-.22-.29.02-.58.04-.87.06.11-1.96.03-3.73-.24-5.23.65-.13,1.27-.2,1.83-.2ZM72.38,42.34c.44,0,.85.08,1.24.23,1.39.55,2.32,2.04,2.79,4.2-1.48.34-3.12.97-4.87,1.84-.69-2.06-1.5-3.8-2.41-5.15,1.18-.74,2.27-1.12,3.25-1.12ZM64.49,40.83c1.39,0,2.7.89,3.87,2.49-1.14.79-2.34,1.88-3.57,3.26-.19.21-.38.44-.57.66-1.31-1.47-2.62-2.66-3.87-3.53,1.24-1.83,2.65-2.88,4.14-2.88ZM54.65,42.87c.43-.18.88-.27,1.37-.27,1.08,0,2.29.45,3.57,1.27-.81,1.3-1.53,2.91-2.15,4.78-.26-.13-.53-.26-.79-.38-1.67-.78-3.19-1.3-4.55-1.57.45-1.97,1.31-3.29,2.55-3.82ZM46.97,48.09c.72-.72,1.77-1.08,3.1-1.08.43,0,.9.04,1.39.12-.25,1.36-.33,2.97-.22,4.81.02.3.05.61.08.91-.3-.02-.62-.04-.92-.05-1.63-.04-3.08.05-4.33.27-.43-2.18-.17-3.92.89-4.98ZM41.45,56.49c.54-1.35,1.99-2.29,4.2-2.77.35,1.47.97,3.11,1.84,4.85-2.06.69-3.81,1.5-5.17,2.42-1.04-1.67-1.38-3.21-.87-4.49ZM39.71,65.62c0-1.38.89-2.69,2.47-3.86.92,1.35,2.25,2.75,3.91,4.15-1.46,1.31-2.64,2.6-3.51,3.85-1.83-1.24-2.87-2.65-2.87-4.14ZM41.74,75.46c-.59-1.37-.2-3.08.99-4.94,1.29.8,2.89,1.52,4.75,2.14-.97,1.95-1.63,3.76-1.94,5.36-1.91-.44-3.25-1.29-3.8-2.56ZM46.97,83.14c-.98-.98-1.28-2.53-.98-4.47.98.18,2.08.28,3.28.28.77,0,1.58-.04,2.42-.11-.11,1.96-.03,3.71.24,5.21-2.17.42-3.9.16-4.96-.9ZM55.37,88.66c-1.39-.55-2.32-2.04-2.8-4.21,1.48-.34,3.12-.96,4.87-1.84.69,2.07,1.5,3.82,2.42,5.17-1.67,1.04-3.21,1.38-4.49.88ZM64.49,90.4c-1.38,0-2.69-.89-3.86-2.46,1.35-.92,2.75-2.25,4.15-3.92,1.31,1.46,2.6,2.64,3.85,3.51-1.24,1.83-2.65,2.88-4.14,2.88ZM74.34,88.36c-1.37.59-3.08.2-4.94-.99.8-1.29,1.53-2.9,2.14-4.76,1.94.97,3.76,1.64,5.36,1.95-.44,1.91-1.29,3.25-2.56,3.79ZM82.02,83.14c-.98.98-2.53,1.28-4.47.98.3-1.62.35-3.56.16-5.74.29.02.59.04.87.05.26,0,.52.01.77.01,1.32,0,2.51-.1,3.56-.29.43,2.18.17,3.93-.89,4.99ZM87.54,74.74c-.54,1.35-1.98,2.29-4.2,2.78-.35-1.47-.97-3.11-1.84-4.86,2.06-.69,3.8-1.5,5.15-2.4,1.07,1.7,1.39,3.23.89,4.48ZM86.79,69.49c-.79-1.14-1.88-2.34-3.26-3.57-.21-.19-.44-.38-.66-.57,1.47-1.31,2.66-2.62,3.53-3.87,1.83,1.24,2.87,2.65,2.87,4.14,0,1.39-.89,2.7-2.49,3.87Z" class="st2"/>
    <circle r="9.02" cy="65.62" cx="64.49" class="st4"/>
  </g>
</svg>