<svg xmlns="http://www.w3.org/2000/svg" width="366.5" height="149.0" viewBox="-8.0 -8.0 366.5 149.0" fill="none">
  <svg x="12" y="12" width="144.0" height="144.0" viewBox="0 0 500 500">
  <g transform="translate(-262,-262)"><g transform="translate(0.000000,1024.000000) scale(0.100000,-0.100000)" fill="#FFFFFF" stroke="none">
<path d="M4955 7244 c-16 -2 -72 -9 -124 -15 -197 -23 -454 -100 -648 -196&#xA;-556 -273 -967 -778 -1124 -1378 -39 -150 -58 -288 -66 -482 l-6 -163 261 0&#xA;262 0 0 115 0 115 -145 0 -146 0 6 53 c68 599 359 1087 846 1415 252 171 520&#xA;264 877 306 l52 7 0 -204 0 -204 -67 -7 c-165 -15 -394 -100 -555 -206 -333&#xA;-217 -551 -543 -640 -954 -30 -139 -33 -493 -5 -631 93 -458 372 -841 757&#xA;-1039 115 -60 306 -123 417 -139 l88 -13 5 -315 5 -314 165 1 c447 3 857 146&#xA;1235 430 249 186 461 440 610 728 151 291 226 592 229 921 l1 160 -257 3 -258&#xA;2 0 -115 0 -115 139 0 c79 0 142 -4 146 -10 17 -27 -36 -312 -89 -475 -127&#xA;-394 -409 -760 -766 -995 -264 -173 -530 -265 -877 -303 l-43 -5 0 204 0 204&#xA;35 0 c54 0 179 28 280 62 479 163 833 574 946 1096 30 140 37 418 15 571 -53&#xA;358 -237 704 -488 919 -75 64 -214 159 -283 194 -134 68 -371 138 -467 138&#xA;l-38 0 -2 318 -3 317 -125 1 c-69 1 -138 0 -155 -2z m447 -888 c535 -137 898&#xA;-635 898 -1235 0 -509 -262 -952 -685 -1157 -490 -237 -1082 -92 -1411 345&#xA;-113 151 -191 324 -236 522 -31 139 -33 426 -4 559 61 284 166 484 350 666&#xA;181 180 387 284 641 324 107 16 337 4 447 -24z"></path>
<path d="M6867 7243 c-4 -3 -7 -91 -7 -195 l0 -188 195 0 195 0 0 195 0 195&#xA;-188 0 c-104 0 -192 -3 -195 -7z"></path>
<path d="M5450 7107 l0 -115 48 -7 c80 -12 272 -71 372 -114 435 -189 791&#xA;-540 985 -970 49 -110 110 -296 127 -389 7 -35 17 -66 23 -68 6 -3 59 -3 117&#xA;-2 l105 3 -23 111 c-49 239 -168 526 -301 729 -261 396 -650 700 -1083 848&#xA;-97 33 -255 74 -320 83 l-50 7 0 -116z"></path>
<path d="M3024 4749 c4 -28 20 -103 37 -166 167 -649 656 -1199 1289 -1447&#xA;106 -42 309 -100 388 -111 l52 -7 0 114 0 115 -82 17 c-470 101 -900 399&#xA;-1178 816 -117 174 -211 394 -263 615 l-24 100 -113 3 -113 3 7 -52z"></path>
</g></g>
</svg>
  <text x="153.6" y="129.6" font-family="Inter, Helvetica, Arial, sans-serif" font-size="120" font-weight="600" letter-spacing="-2.4" fill="#FFFFFF">rigo</text>
</svg>